-5.575422 -2.838380 1.300000 1.000000 0.000000 0.000000
-5.575422 -2.838380 1.300000 0.707107 0.707107 0.000000
-5.575422 -2.838380 1.300000 0.000000 1.000000 0.000000
-5.575422 -2.838380 1.300000 -0.707107 0.707107 0.000000
-5.575422 -2.838380 1.300000 -1.000000 0.000000 0.000000
-5.575422 -2.838380 1.300000 -0.707107 -0.707107 0.000000
-5.575422 -2.838380 1.300000 0.000000 -1.000000 0.000000
-5.575422 -2.838380 1.300000 0.707107 -0.707107 0.000000
-5.075422 -2.838380 1.300000 1.000000 0.000000 0.000000
-5.075422 -2.838380 1.300000 0.707107 0.707107 0.000000
-5.075422 -2.838380 1.300000 0.000000 1.000000 0.000000
-5.075422 -2.838380 1.300000 -0.707107 0.707107 0.000000
-5.075422 -2.838380 1.300000 -1.000000 0.000000 0.000000
-5.075422 -2.838380 1.300000 -0.707107 -0.707107 0.000000
-5.075422 -2.838380 1.300000 0.000000 -1.000000 0.000000
-5.075422 -2.838380 1.300000 0.707107 -0.707107 0.000000
-4.575422 -2.838380 1.300000 1.000000 0.000000 0.000000
-4.575422 -2.838380 1.300000 0.707107 0.707107 0.000000
-4.575422 -2.838380 1.300000 0.000000 1.000000 0.000000
-4.575422 -2.838380 1.300000 -0.707107 0.707107 0.000000
-4.575422 -2.838380 1.300000 -1.000000 0.000000 0.000000
-4.575422 -2.838380 1.300000 -0.707107 -0.707107 0.000000
-4.575422 -2.838380 1.300000 0.000000 -1.000000 0.000000
-4.575422 -2.838380 1.300000 0.707107 -0.707107 0.000000
-4.075422 -2.838380 1.300000 1.000000 0.000000 0.000000
-4.075422 -2.838380 1.300000 0.707107 0.707107 0.000000
-4.075422 -2.838380 1.300000 0.000000 1.000000 0.000000
-4.075422 -2.838380 1.300000 -0.707107 0.707107 0.000000
-4.075422 -2.838380 1.300000 -1.000000 0.000000 0.000000
-4.075422 -2.838380 1.300000 -0.707107 -0.707107 0.000000
-4.075422 -2.838380 1.300000 0.000000 -1.000000 0.000000
-4.075422 -2.838380 1.300000 0.707107 -0.707107 0.000000
-3.575422 -2.838380 1.300000 1.000000 0.000000 0.000000
-3.575422 -2.838380 1.300000 0.707107 0.707107 0.000000
-3.575422 -2.838380 1.300000 0.000000 1.000000 0.000000
-3.575422 -2.838380 1.300000 -0.707107 0.707107 0.000000
-3.575422 -2.838380 1.300000 -1.000000 0.000000 0.000000
-3.575422 -2.838380 1.300000 -0.707107 -0.707107 0.000000
-3.575422 -2.838380 1.300000 0.000000 -1.000000 0.000000
-3.575422 -2.838380 1.300000 0.707107 -0.707107 0.000000
-3.075422 -2.838380 1.300000 1.000000 0.000000 0.000000
-3.075422 -2.838380 1.300000 0.707107 0.707107 0.000000
-3.075422 -2.838380 1.300000 0.000000 1.000000 0.000000
-3.075422 -2.838380 1.300000 -0.707107 0.707107 0.000000
-3.075422 -2.838380 1.300000 -1.000000 0.000000 0.000000
-3.075422 -2.838380 1.300000 -0.707107 -0.707107 0.000000
-3.075422 -2.838380 1.300000 0.000000 -1.000000 0.000000
-3.075422 -2.838380 1.300000 0.707107 -0.707107 0.000000
-2.575422 -2.838380 1.300000 1.000000 0.000000 0.000000
-2.575422 -2.838380 1.300000 0.707107 0.707107 0.000000
-2.575422 -2.838380 1.300000 0.000000 1.000000 0.000000
-2.575422 -2.838380 1.300000 -0.707107 0.707107 0.000000
-2.575422 -2.838380 1.300000 -1.000000 0.000000 0.000000
-2.575422 -2.838380 1.300000 -0.707107 -0.707107 0.000000
-2.575422 -2.838380 1.300000 0.000000 -1.000000 0.000000
-2.575422 -2.838380 1.300000 0.707107 -0.707107 0.000000
-2.075422 -2.838380 1.300000 1.000000 0.000000 0.000000
-2.075422 -2.838380 1.300000 0.707107 0.707107 0.000000
-2.075422 -2.838380 1.300000 0.000000 1.000000 0.000000
-2.075422 -2.838380 1.300000 -0.707107 0.707107 0.000000
-2.075422 -2.838380 1.300000 -1.000000 0.000000 0.000000
-2.075422 -2.838380 1.300000 -0.707107 -0.707107 0.000000
-2.075422 -2.838380 1.300000 0.000000 -1.000000 0.000000
-2.075422 -2.838380 1.300000 0.707107 -0.707107 0.000000
-1.575422 -2.838380 1.300000 1.000000 0.000000 0.000000
-1.575422 -2.838380 1.300000 0.707107 0.707107 0.000000
-1.575422 -2.838380 1.300000 0.000000 1.000000 0.000000
-1.575422 -2.838380 1.300000 -0.707107 0.707107 0.000000
-1.575422 -2.838380 1.300000 -1.000000 0.000000 0.000000
-1.575422 -2.838380 1.300000 -0.707107 -0.707107 0.000000
-1.575422 -2.838380 1.300000 0.000000 -1.000000 0.000000
-1.575422 -2.838380 1.300000 0.707107 -0.707107 0.000000
-1.075422 -2.838380 1.300000 1.000000 0.000000 0.000000
-1.075422 -2.838380 1.300000 0.707107 0.707107 0.000000
-1.075422 -2.838380 1.300000 0.000000 1.000000 0.000000
-1.075422 -2.838380 1.300000 -0.707107 0.707107 0.000000
-1.075422 -2.838380 1.300000 -1.000000 0.000000 0.000000
-1.075422 -2.838380 1.300000 -0.707107 -0.707107 0.000000
-1.075422 -2.838380 1.300000 0.000000 -1.000000 0.000000
-1.075422 -2.838380 1.300000 0.707107 -0.707107 0.000000
-0.575422 -2.838380 1.300000 1.000000 0.000000 0.000000
-0.575422 -2.838380 1.300000 0.707107 0.707107 0.000000
-0.575422 -2.838380 1.300000 0.000000 1.000000 0.000000
-0.575422 -2.838380 1.300000 -0.707107 0.707107 0.000000
-0.575422 -2.838380 1.300000 -1.000000 0.000000 0.000000
-0.575422 -2.838380 1.300000 -0.707107 -0.707107 0.000000
-0.575422 -2.838380 1.300000 0.000000 -1.000000 0.000000
-0.575422 -2.838380 1.300000 0.707107 -0.707107 0.000000
-5.575422 -2.338380 1.300000 1.000000 0.000000 0.000000
-5.575422 -2.338380 1.300000 0.707107 0.707107 0.000000
-5.575422 -2.338380 1.300000 0.000000 1.000000 0.000000
-5.575422 -2.338380 1.300000 -0.707107 0.707107 0.000000
-5.575422 -2.338380 1.300000 -1.000000 0.000000 0.000000
-5.575422 -2.338380 1.300000 -0.707107 -0.707107 0.000000
-5.575422 -2.338380 1.300000 0.000000 -1.000000 0.000000
-5.575422 -2.338380 1.300000 0.707107 -0.707107 0.000000
-5.075422 -2.338380 1.300000 1.000000 0.000000 0.000000
-5.075422 -2.338380 1.300000 0.707107 0.707107 0.000000
-5.075422 -2.338380 1.300000 0.000000 1.000000 0.000000
-5.075422 -2.338380 1.300000 -0.707107 0.707107 0.000000
-5.075422 -2.338380 1.300000 -1.000000 0.000000 0.000000
-5.075422 -2.338380 1.300000 -0.707107 -0.707107 0.000000
-5.075422 -2.338380 1.300000 0.000000 -1.000000 0.000000
-5.075422 -2.338380 1.300000 0.707107 -0.707107 0.000000
-4.575422 -2.338380 1.300000 1.000000 0.000000 0.000000
-4.575422 -2.338380 1.300000 0.707107 0.707107 0.000000
-4.575422 -2.338380 1.300000 0.000000 1.000000 0.000000
-4.575422 -2.338380 1.300000 -0.707107 0.707107 0.000000
-4.575422 -2.338380 1.300000 -1.000000 0.000000 0.000000
-4.575422 -2.338380 1.300000 -0.707107 -0.707107 0.000000
-4.575422 -2.338380 1.300000 0.000000 -1.000000 0.000000
-4.575422 -2.338380 1.300000 0.707107 -0.707107 0.000000
-4.075422 -2.338380 1.300000 1.000000 0.000000 0.000000
-4.075422 -2.338380 1.300000 0.707107 0.707107 0.000000
-4.075422 -2.338380 1.300000 0.000000 1.000000 0.000000
-4.075422 -2.338380 1.300000 -0.707107 0.707107 0.000000
-4.075422 -2.338380 1.300000 -1.000000 0.000000 0.000000
-4.075422 -2.338380 1.300000 -0.707107 -0.707107 0.000000
-4.075422 -2.338380 1.300000 0.000000 -1.000000 0.000000
-4.075422 -2.338380 1.300000 0.707107 -0.707107 0.000000
-3.575422 -2.338380 1.300000 1.000000 0.000000 0.000000
-3.575422 -2.338380 1.300000 0.707107 0.707107 0.000000
-3.575422 -2.338380 1.300000 0.000000 1.000000 0.000000
-3.575422 -2.338380 1.300000 -0.707107 0.707107 0.000000
-3.575422 -2.338380 1.300000 -1.000000 0.000000 0.000000
-3.575422 -2.338380 1.300000 -0.707107 -0.707107 0.000000
-3.575422 -2.338380 1.300000 0.000000 -1.000000 0.000000
-3.575422 -2.338380 1.300000 0.707107 -0.707107 0.000000
-3.075422 -2.338380 1.300000 1.000000 0.000000 0.000000
-3.075422 -2.338380 1.300000 0.707107 0.707107 0.000000
-3.075422 -2.338380 1.300000 0.000000 1.000000 0.000000
-3.075422 -2.338380 1.300000 -0.707107 0.707107 0.000000
-3.075422 -2.338380 1.300000 -1.000000 0.000000 0.000000
-3.075422 -2.338380 1.300000 -0.707107 -0.707107 0.000000
-3.075422 -2.338380 1.300000 0.000000 -1.000000 0.000000
-3.075422 -2.338380 1.300000 0.707107 -0.707107 0.000000
-2.075422 -2.338380 1.300000 1.000000 0.000000 0.000000
-2.075422 -2.338380 1.300000 0.707107 0.707107 0.000000
-2.075422 -2.338380 1.300000 0.000000 1.000000 0.000000
-2.075422 -2.338380 1.300000 -0.707107 0.707107 0.000000
-2.075422 -2.338380 1.300000 -1.000000 0.000000 0.000000
-2.075422 -2.338380 1.300000 -0.707107 -0.707107 0.000000
-2.075422 -2.338380 1.300000 0.000000 -1.000000 0.000000
-2.075422 -2.338380 1.300000 0.707107 -0.707107 0.000000
-1.575422 -2.338380 1.300000 1.000000 0.000000 0.000000
-1.575422 -2.338380 1.300000 0.707107 0.707107 0.000000
-1.575422 -2.338380 1.300000 0.000000 1.000000 0.000000
-1.575422 -2.338380 1.300000 -0.707107 0.707107 0.000000
-1.575422 -2.338380 1.300000 -1.000000 0.000000 0.000000
-1.575422 -2.338380 1.300000 -0.707107 -0.707107 0.000000
-1.575422 -2.338380 1.300000 0.000000 -1.000000 0.000000
-1.575422 -2.338380 1.300000 0.707107 -0.707107 0.000000
-1.075422 -2.338380 1.300000 1.000000 0.000000 0.000000
-1.075422 -2.338380 1.300000 0.707107 0.707107 0.000000
-1.075422 -2.338380 1.300000 0.000000 1.000000 0.000000
-1.075422 -2.338380 1.300000 -0.707107 0.707107 0.000000
-1.075422 -2.338380 1.300000 -1.000000 0.000000 0.000000
-1.075422 -2.338380 1.300000 -0.707107 -0.707107 0.000000
-1.075422 -2.338380 1.300000 0.000000 -1.000000 0.000000
-1.075422 -2.338380 1.300000 0.707107 -0.707107 0.000000
-0.575422 -2.338380 1.300000 1.000000 0.000000 0.000000
-0.575422 -2.338380 1.300000 0.707107 0.707107 0.000000
-0.575422 -2.338380 1.300000 0.000000 1.000000 0.000000
-0.575422 -2.338380 1.300000 -0.707107 0.707107 0.000000
-0.575422 -2.338380 1.300000 -1.000000 0.000000 0.000000
-0.575422 -2.338380 1.300000 -0.707107 -0.707107 0.000000
-0.575422 -2.338380 1.300000 0.000000 -1.000000 0.000000
-0.575422 -2.338380 1.300000 0.707107 -0.707107 0.000000
-5.575422 -1.838380 1.300000 1.000000 0.000000 0.000000
-5.575422 -1.838380 1.300000 0.707107 0.707107 0.000000
-5.575422 -1.838380 1.300000 0.000000 1.000000 0.000000
-5.575422 -1.838380 1.300000 -0.707107 0.707107 0.000000
-5.575422 -1.838380 1.300000 -1.000000 0.000000 0.000000
-5.575422 -1.838380 1.300000 -0.707107 -0.707107 0.000000
-5.575422 -1.838380 1.300000 0.000000 -1.000000 0.000000
-5.575422 -1.838380 1.300000 0.707107 -0.707107 0.000000
-5.075422 -1.838380 1.300000 1.000000 0.000000 0.000000
-5.075422 -1.838380 1.300000 0.707107 0.707107 0.000000
-5.075422 -1.838380 1.300000 0.000000 1.000000 0.000000
-5.075422 -1.838380 1.300000 -0.707107 0.707107 0.000000
-5.075422 -1.838380 1.300000 -1.000000 0.000000 0.000000
-5.075422 -1.838380 1.300000 -0.707107 -0.707107 0.000000
-5.075422 -1.838380 1.300000 0.000000 -1.000000 0.000000
-5.075422 -1.838380 1.300000 0.707107 -0.707107 0.000000
-4.575422 -1.838380 1.300000 1.000000 0.000000 0.000000
-4.575422 -1.838380 1.300000 0.707107 0.707107 0.000000
-4.575422 -1.838380 1.300000 0.000000 1.000000 0.000000
-4.575422 -1.838380 1.300000 -0.707107 0.707107 0.000000
-4.575422 -1.838380 1.300000 -1.000000 0.000000 0.000000
-4.575422 -1.838380 1.300000 -0.707107 -0.707107 0.000000
-4.575422 -1.838380 1.300000 0.000000 -1.000000 0.000000
-4.575422 -1.838380 1.300000 0.707107 -0.707107 0.000000
-4.075422 -1.838380 1.300000 1.000000 0.000000 0.000000
-4.075422 -1.838380 1.300000 0.707107 0.707107 0.000000
-4.075422 -1.838380 1.300000 0.000000 1.000000 0.000000
-4.075422 -1.838380 1.300000 -0.707107 0.707107 0.000000
-4.075422 -1.838380 1.300000 -1.000000 0.000000 0.000000
-4.075422 -1.838380 1.300000 -0.707107 -0.707107 0.000000
-4.075422 -1.838380 1.300000 0.000000 -1.000000 0.000000
-4.075422 -1.838380 1.300000 0.707107 -0.707107 0.000000
-3.575422 -1.838380 1.300000 1.000000 0.000000 0.000000
-3.575422 -1.838380 1.300000 0.707107 0.707107 0.000000
-3.575422 -1.838380 1.300000 0.000000 1.000000 0.000000
-3.575422 -1.838380 1.300000 -0.707107 0.707107 0.000000
-3.575422 -1.838380 1.300000 -1.000000 0.000000 0.000000
-3.575422 -1.838380 1.300000 -0.707107 -0.707107 0.000000
-3.575422 -1.838380 1.300000 0.000000 -1.000000 0.000000
-3.575422 -1.838380 1.300000 0.707107 -0.707107 0.000000
-3.075422 -1.838380 1.300000 1.000000 0.000000 0.000000
-3.075422 -1.838380 1.300000 0.707107 0.707107 0.000000
-3.075422 -1.838380 1.300000 0.000000 1.000000 0.000000
-3.075422 -1.838380 1.300000 -0.707107 0.707107 0.000000
-3.075422 -1.838380 1.300000 -1.000000 0.000000 0.000000
-3.075422 -1.838380 1.300000 -0.707107 -0.707107 0.000000
-3.075422 -1.838380 1.300000 0.000000 -1.000000 0.000000
-3.075422 -1.838380 1.300000 0.707107 -0.707107 0.000000
-2.575422 -1.838380 1.300000 1.000000 0.000000 0.000000
-2.575422 -1.838380 1.300000 0.707107 0.707107 0.000000
-2.575422 -1.838380 1.300000 0.000000 1.000000 0.000000
-2.575422 -1.838380 1.300000 -0.707107 0.707107 0.000000
-2.575422 -1.838380 1.300000 -1.000000 0.000000 0.000000
-2.575422 -1.838380 1.300000 -0.707107 -0.707107 0.000000
-2.575422 -1.838380 1.300000 0.000000 -1.000000 0.000000
-2.575422 -1.838380 1.300000 0.707107 -0.707107 0.000000
-2.075422 -1.838380 1.300000 1.000000 0.000000 0.000000
-2.075422 -1.838380 1.300000 0.707107 0.707107 0.000000
-2.075422 -1.838380 1.300000 0.000000 1.000000 0.000000
-2.075422 -1.838380 1.300000 -0.707107 0.707107 0.000000
-2.075422 -1.838380 1.300000 -1.000000 0.000000 0.000000
-2.075422 -1.838380 1.300000 -0.707107 -0.707107 0.000000
-2.075422 -1.838380 1.300000 0.000000 -1.000000 0.000000
-2.075422 -1.838380 1.300000 0.707107 -0.707107 0.000000
-1.575422 -1.838380 1.300000 1.000000 0.000000 0.000000
-1.575422 -1.838380 1.300000 0.707107 0.707107 0.000000
-1.575422 -1.838380 1.300000 0.000000 1.000000 0.000000
-1.575422 -1.838380 1.300000 -0.707107 0.707107 0.000000
-1.575422 -1.838380 1.300000 -1.000000 0.000000 0.000000
-1.575422 -1.838380 1.300000 -0.707107 -0.707107 0.000000
-1.575422 -1.838380 1.300000 0.000000 -1.000000 0.000000
-1.575422 -1.838380 1.300000 0.707107 -0.707107 0.000000
-1.075422 -1.838380 1.300000 1.000000 0.000000 0.000000
-1.075422 -1.838380 1.300000 0.707107 0.707107 0.000000
-1.075422 -1.838380 1.300000 0.000000 1.000000 0.000000
-1.075422 -1.838380 1.300000 -0.707107 0.707107 0.000000
-1.075422 -1.838380 1.300000 -1.000000 0.000000 0.000000
-1.075422 -1.838380 1.300000 -0.707107 -0.707107 0.000000
-1.075422 -1.838380 1.300000 0.000000 -1.000000 0.000000
-1.075422 -1.838380 1.300000 0.707107 -0.707107 0.000000
-0.575422 -1.838380 1.300000 1.000000 0.000000 0.000000
-0.575422 -1.838380 1.300000 0.707107 0.707107 0.000000
-0.575422 -1.838380 1.300000 0.000000 1.000000 0.000000
-0.575422 -1.838380 1.300000 -0.707107 0.707107 0.000000
-0.575422 -1.838380 1.300000 -1.000000 0.000000 0.000000
-0.575422 -1.838380 1.300000 -0.707107 -0.707107 0.000000
-0.575422 -1.838380 1.300000 0.000000 -1.000000 0.000000
-0.575422 -1.838380 1.300000 0.707107 -0.707107 0.000000
-5.575422 -1.338380 1.300000 1.000000 0.000000 0.000000
-5.575422 -1.338380 1.300000 0.707107 0.707107 0.000000
-5.575422 -1.338380 1.300000 0.000000 1.000000 0.000000
-5.575422 -1.338380 1.300000 -0.707107 0.707107 0.000000
-5.575422 -1.338380 1.300000 -1.000000 0.000000 0.000000
-5.575422 -1.338380 1.300000 -0.707107 -0.707107 0.000000
-5.575422 -1.338380 1.300000 0.000000 -1.000000 0.000000
-5.575422 -1.338380 1.300000 0.707107 -0.707107 0.000000
-5.075422 -1.338380 1.300000 1.000000 0.000000 0.000000
-5.075422 -1.338380 1.300000 0.707107 0.707107 0.000000
-5.075422 -1.338380 1.300000 0.000000 1.000000 0.000000
-5.075422 -1.338380 1.300000 -0.707107 0.707107 0.000000
-5.075422 -1.338380 1.300000 -1.000000 0.000000 0.000000
-5.075422 -1.338380 1.300000 -0.707107 -0.707107 0.000000
-5.075422 -1.338380 1.300000 0.000000 -1.000000 0.000000
-5.075422 -1.338380 1.300000 0.707107 -0.707107 0.000000
-4.575422 -1.338380 1.300000 1.000000 0.000000 0.000000
-4.575422 -1.338380 1.300000 0.707107 0.707107 0.000000
-4.575422 -1.338380 1.300000 0.000000 1.000000 0.000000
-4.575422 -1.338380 1.300000 -0.707107 0.707107 0.000000
-4.575422 -1.338380 1.300000 -1.000000 0.000000 0.000000
-4.575422 -1.338380 1.300000 -0.707107 -0.707107 0.000000
-4.575422 -1.338380 1.300000 0.000000 -1.000000 0.000000
-4.575422 -1.338380 1.300000 0.707107 -0.707107 0.000000
-4.075422 -1.338380 1.300000 1.000000 0.000000 0.000000
-4.075422 -1.338380 1.300000 0.707107 0.707107 0.000000
-4.075422 -1.338380 1.300000 0.000000 1.000000 0.000000
-4.075422 -1.338380 1.300000 -0.707107 0.707107 0.000000
-4.075422 -1.338380 1.300000 -1.000000 0.000000 0.000000
-4.075422 -1.338380 1.300000 -0.707107 -0.707107 0.000000
-4.075422 -1.338380 1.300000 0.000000 -1.000000 0.000000
-4.075422 -1.338380 1.300000 0.707107 -0.707107 0.000000
-3.575422 -1.338380 1.300000 1.000000 0.000000 0.000000
-3.575422 -1.338380 1.300000 0.707107 0.707107 0.000000
-3.575422 -1.338380 1.300000 0.000000 1.000000 0.000000
-3.575422 -1.338380 1.300000 -0.707107 0.707107 0.000000
-3.575422 -1.338380 1.300000 -1.000000 0.000000 0.000000
-3.575422 -1.338380 1.300000 -0.707107 -0.707107 0.000000
-3.575422 -1.338380 1.300000 0.000000 -1.000000 0.000000
-3.575422 -1.338380 1.300000 0.707107 -0.707107 0.000000
-3.075422 -1.338380 1.300000 1.000000 0.000000 0.000000
-3.075422 -1.338380 1.300000 0.707107 0.707107 0.000000
-3.075422 -1.338380 1.300000 0.000000 1.000000 0.000000
-3.075422 -1.338380 1.300000 -0.707107 0.707107 0.000000
-3.075422 -1.338380 1.300000 -1.000000 0.000000 0.000000
-3.075422 -1.338380 1.300000 -0.707107 -0.707107 0.000000
-3.075422 -1.338380 1.300000 0.000000 -1.000000 0.000000
-3.075422 -1.338380 1.300000 0.707107 -0.707107 0.000000
-2.575422 -1.338380 1.300000 1.000000 0.000000 0.000000
-2.575422 -1.338380 1.300000 0.707107 0.707107 0.000000
-2.575422 -1.338380 1.300000 0.000000 1.000000 0.000000
-2.575422 -1.338380 1.300000 -0.707107 0.707107 0.000000
-2.575422 -1.338380 1.300000 -1.000000 0.000000 0.000000
-2.575422 -1.338380 1.300000 -0.707107 -0.707107 0.000000
-2.575422 -1.338380 1.300000 0.000000 -1.000000 0.000000
-2.575422 -1.338380 1.300000 0.707107 -0.707107 0.000000
-2.075422 -1.338380 1.300000 1.000000 0.000000 0.000000
-2.075422 -1.338380 1.300000 0.707107 0.707107 0.000000
-2.075422 -1.338380 1.300000 0.000000 1.000000 0.000000
-2.075422 -1.338380 1.300000 -0.707107 0.707107 0.000000
-2.075422 -1.338380 1.300000 -1.000000 0.000000 0.000000
-2.075422 -1.338380 1.300000 -0.707107 -0.707107 0.000000
-2.075422 -1.338380 1.300000 0.000000 -1.000000 0.000000
-2.075422 -1.338380 1.300000 0.707107 -0.707107 0.000000
-1.575422 -1.338380 1.300000 1.000000 0.000000 0.000000
-1.575422 -1.338380 1.300000 0.707107 0.707107 0.000000
-1.575422 -1.338380 1.300000 0.000000 1.000000 0.000000
-1.575422 -1.338380 1.300000 -0.707107 0.707107 0.000000
-1.575422 -1.338380 1.300000 -1.000000 0.000000 0.000000
-1.575422 -1.338380 1.300000 -0.707107 -0.707107 0.000000
-1.575422 -1.338380 1.300000 0.000000 -1.000000 0.000000
-1.575422 -1.338380 1.300000 0.707107 -0.707107 0.000000
-1.075422 -1.338380 1.300000 1.000000 0.000000 0.000000
-1.075422 -1.338380 1.300000 0.707107 0.707107 0.000000
-1.075422 -1.338380 1.300000 0.000000 1.000000 0.000000
-1.075422 -1.338380 1.300000 -0.707107 0.707107 0.000000
-1.075422 -1.338380 1.300000 -1.000000 0.000000 0.000000
-1.075422 -1.338380 1.300000 -0.707107 -0.707107 0.000000
-1.075422 -1.338380 1.300000 0.000000 -1.000000 0.000000
-1.075422 -1.338380 1.300000 0.707107 -0.707107 0.000000
-0.575422 -1.338380 1.300000 1.000000 0.000000 0.000000
-0.575422 -1.338380 1.300000 0.707107 0.707107 0.000000
-0.575422 -1.338380 1.300000 0.000000 1.000000 0.000000
-0.575422 -1.338380 1.300000 -0.707107 0.707107 0.000000
-0.575422 -1.338380 1.300000 -1.000000 0.000000 0.000000
-0.575422 -1.338380 1.300000 -0.707107 -0.707107 0.000000
-0.575422 -1.338380 1.300000 0.000000 -1.000000 0.000000
-0.575422 -1.338380 1.300000 0.707107 -0.707107 0.000000
-5.575422 -0.838380 1.300000 1.000000 0.000000 0.000000
-5.575422 -0.838380 1.300000 0.707107 0.707107 0.000000
-5.575422 -0.838380 1.300000 0.000000 1.000000 0.000000
-5.575422 -0.838380 1.300000 -0.707107 0.707107 0.000000
-5.575422 -0.838380 1.300000 -1.000000 0.000000 0.000000
-5.575422 -0.838380 1.300000 -0.707107 -0.707107 0.000000
-5.575422 -0.838380 1.300000 0.000000 -1.000000 0.000000
-5.575422 -0.838380 1.300000 0.707107 -0.707107 0.000000
-5.075422 -0.838380 1.300000 1.000000 0.000000 0.000000
-5.075422 -0.838380 1.300000 0.707107 0.707107 0.000000
-5.075422 -0.838380 1.300000 0.000000 1.000000 0.000000
-5.075422 -0.838380 1.300000 -0.707107 0.707107 0.000000
-5.075422 -0.838380 1.300000 -1.000000 0.000000 0.000000
-5.075422 -0.838380 1.300000 -0.707107 -0.707107 0.000000
-5.075422 -0.838380 1.300000 0.000000 -1.000000 0.000000
-5.075422 -0.838380 1.300000 0.707107 -0.707107 0.000000
-4.575422 -0.838380 1.300000 1.000000 0.000000 0.000000
-4.575422 -0.838380 1.300000 0.707107 0.707107 0.000000
-4.575422 -0.838380 1.300000 0.000000 1.000000 0.000000
-4.575422 -0.838380 1.300000 -0.707107 0.707107 0.000000
-4.575422 -0.838380 1.300000 -1.000000 0.000000 0.000000
-4.575422 -0.838380 1.300000 -0.707107 -0.707107 0.000000
-4.575422 -0.838380 1.300000 0.000000 -1.000000 0.000000
-4.575422 -0.838380 1.300000 0.707107 -0.707107 0.000000
-4.075422 -0.838380 1.300000 1.000000 0.000000 0.000000
-4.075422 -0.838380 1.300000 0.707107 0.707107 0.000000
-4.075422 -0.838380 1.300000 0.000000 1.000000 0.000000
-4.075422 -0.838380 1.300000 -0.707107 0.707107 0.000000
-4.075422 -0.838380 1.300000 -1.000000 0.000000 0.000000
-4.075422 -0.838380 1.300000 -0.707107 -0.707107 0.000000
-4.075422 -0.838380 1.300000 0.000000 -1.000000 0.000000
-4.075422 -0.838380 1.300000 0.707107 -0.707107 0.000000
-3.575422 -0.838380 1.300000 1.000000 0.000000 0.000000
-3.575422 -0.838380 1.300000 0.707107 0.707107 0.000000
-3.575422 -0.838380 1.300000 0.000000 1.000000 0.000000
-3.575422 -0.838380 1.300000 -0.707107 0.707107 0.000000
-3.575422 -0.838380 1.300000 -1.000000 0.000000 0.000000
-3.575422 -0.838380 1.300000 -0.707107 -0.707107 0.000000
-3.575422 -0.838380 1.300000 0.000000 -1.000000 0.000000
-3.575422 -0.838380 1.300000 0.707107 -0.707107 0.000000
-3.075422 -0.838380 1.300000 1.000000 0.000000 0.000000
-3.075422 -0.838380 1.300000 0.707107 0.707107 0.000000
-3.075422 -0.838380 1.300000 0.000000 1.000000 0.000000
-3.075422 -0.838380 1.300000 -0.707107 0.707107 0.000000
-3.075422 -0.838380 1.300000 -1.000000 0.000000 0.000000
-3.075422 -0.838380 1.300000 -0.707107 -0.707107 0.000000
-3.075422 -0.838380 1.300000 0.000000 -1.000000 0.000000
-3.075422 -0.838380 1.300000 0.707107 -0.707107 0.000000
-2.575422 -0.838380 1.300000 1.000000 0.000000 0.000000
-2.575422 -0.838380 1.300000 0.707107 0.707107 0.000000
-2.575422 -0.838380 1.300000 0.000000 1.000000 0.000000
-2.575422 -0.838380 1.300000 -0.707107 0.707107 0.000000
-2.575422 -0.838380 1.300000 -1.000000 0.000000 0.000000
-2.575422 -0.838380 1.300000 -0.707107 -0.707107 0.000000
-2.575422 -0.838380 1.300000 0.000000 -1.000000 0.000000
-2.575422 -0.838380 1.300000 0.707107 -0.707107 0.000000
-2.075422 -0.838380 1.300000 1.000000 0.000000 0.000000
-2.075422 -0.838380 1.300000 0.707107 0.707107 0.000000
-2.075422 -0.838380 1.300000 0.000000 1.000000 0.000000
-2.075422 -0.838380 1.300000 -0.707107 0.707107 0.000000
-2.075422 -0.838380 1.300000 -1.000000 0.000000 0.000000
-2.075422 -0.838380 1.300000 -0.707107 -0.707107 0.000000
-2.075422 -0.838380 1.300000 0.000000 -1.000000 0.000000
-2.075422 -0.838380 1.300000 0.707107 -0.707107 0.000000
-1.575422 -0.838380 1.300000 1.000000 0.000000 0.000000
-1.575422 -0.838380 1.300000 0.707107 0.707107 0.000000
-1.575422 -0.838380 1.300000 0.000000 1.000000 0.000000
-1.575422 -0.838380 1.300000 -0.707107 0.707107 0.000000
-1.575422 -0.838380 1.300000 -1.000000 0.000000 0.000000
-1.575422 -0.838380 1.300000 -0.707107 -0.707107 0.000000
-1.575422 -0.838380 1.300000 0.000000 -1.000000 0.000000
-1.575422 -0.838380 1.300000 0.707107 -0.707107 0.000000
-1.075422 -0.838380 1.300000 1.000000 0.000000 0.000000
-1.075422 -0.838380 1.300000 0.707107 0.707107 0.000000
-1.075422 -0.838380 1.300000 0.000000 1.000000 0.000000
-1.075422 -0.838380 1.300000 -0.707107 0.707107 0.000000
-1.075422 -0.838380 1.300000 -1.000000 0.000000 0.000000
-1.075422 -0.838380 1.300000 -0.707107 -0.707107 0.000000
-1.075422 -0.838380 1.300000 0.000000 -1.000000 0.000000
-1.075422 -0.838380 1.300000 0.707107 -0.707107 0.000000
-0.575422 -0.838380 1.300000 1.000000 0.000000 0.000000
-0.575422 -0.838380 1.300000 0.707107 0.707107 0.000000
-0.575422 -0.838380 1.300000 0.000000 1.000000 0.000000
-0.575422 -0.838380 1.300000 -0.707107 0.707107 0.000000
-0.575422 -0.838380 1.300000 -1.000000 0.000000 0.000000
-0.575422 -0.838380 1.300000 -0.707107 -0.707107 0.000000
-0.575422 -0.838380 1.300000 0.000000 -1.000000 0.000000
-0.575422 -0.838380 1.300000 0.707107 -0.707107 0.000000
-5.575422 -0.338380 1.300000 1.000000 0.000000 0.000000
-5.575422 -0.338380 1.300000 0.707107 0.707107 0.000000
-5.575422 -0.338380 1.300000 0.000000 1.000000 0.000000
-5.575422 -0.338380 1.300000 -0.707107 0.707107 0.000000
-5.575422 -0.338380 1.300000 -1.000000 0.000000 0.000000
-5.575422 -0.338380 1.300000 -0.707107 -0.707107 0.000000
-5.575422 -0.338380 1.300000 0.000000 -1.000000 0.000000
-5.575422 -0.338380 1.300000 0.707107 -0.707107 0.000000
-5.075422 -0.338380 1.300000 1.000000 0.000000 0.000000
-5.075422 -0.338380 1.300000 0.707107 0.707107 0.000000
-5.075422 -0.338380 1.300000 0.000000 1.000000 0.000000
-5.075422 -0.338380 1.300000 -0.707107 0.707107 0.000000
-5.075422 -0.338380 1.300000 -1.000000 0.000000 0.000000
-5.075422 -0.338380 1.300000 -0.707107 -0.707107 0.000000
-5.075422 -0.338380 1.300000 0.000000 -1.000000 0.000000
-5.075422 -0.338380 1.300000 0.707107 -0.707107 0.000000
-4.575422 -0.338380 1.300000 1.000000 0.000000 0.000000
-4.575422 -0.338380 1.300000 0.707107 0.707107 0.000000
-4.575422 -0.338380 1.300000 0.000000 1.000000 0.000000
-4.575422 -0.338380 1.300000 -0.707107 0.707107 0.000000
-4.575422 -0.338380 1.300000 -1.000000 0.000000 0.000000
-4.575422 -0.338380 1.300000 -0.707107 -0.707107 0.000000
-4.575422 -0.338380 1.300000 0.000000 -1.000000 0.000000
-4.575422 -0.338380 1.300000 0.707107 -0.707107 0.000000
-4.075422 -0.338380 1.300000 1.000000 0.000000 0.000000
-4.075422 -0.338380 1.300000 0.707107 0.707107 0.000000
-4.075422 -0.338380 1.300000 0.000000 1.000000 0.000000
-4.075422 -0.338380 1.300000 -0.707107 0.707107 0.000000
-4.075422 -0.338380 1.300000 -1.000000 0.000000 0.000000
-4.075422 -0.338380 1.300000 -0.707107 -0.707107 0.000000
-4.075422 -0.338380 1.300000 0.000000 -1.000000 0.000000
-4.075422 -0.338380 1.300000 0.707107 -0.707107 0.000000
-3.575422 -0.338380 1.300000 1.000000 0.000000 0.000000
-3.575422 -0.338380 1.300000 0.707107 0.707107 0.000000
-3.575422 -0.338380 1.300000 0.000000 1.000000 0.000000
-3.575422 -0.338380 1.300000 -0.707107 0.707107 0.000000
-3.575422 -0.338380 1.300000 -1.000000 0.000000 0.000000
-3.575422 -0.338380 1.300000 -0.707107 -0.707107 0.000000
-3.575422 -0.338380 1.300000 0.000000 -1.000000 0.000000
-3.575422 -0.338380 1.300000 0.707107 -0.707107 0.000000
-3.075422 -0.338380 1.300000 1.000000 0.000000 0.000000
-3.075422 -0.338380 1.300000 0.707107 0.707107 0.000000
-3.075422 -0.338380 1.300000 0.000000 1.000000 0.000000
-3.075422 -0.338380 1.300000 -0.707107 0.707107 0.000000
-3.075422 -0.338380 1.300000 -1.000000 0.000000 0.000000
-3.075422 -0.338380 1.300000 -0.707107 -0.707107 0.000000
-3.075422 -0.338380 1.300000 0.000000 -1.000000 0.000000
-3.075422 -0.338380 1.300000 0.707107 -0.707107 0.000000
-2.575422 -0.338380 1.300000 1.000000 0.000000 0.000000
-2.575422 -0.338380 1.300000 0.707107 0.707107 0.000000
-2.575422 -0.338380 1.300000 0.000000 1.000000 0.000000
-2.575422 -0.338380 1.300000 -0.707107 0.707107 0.000000
-2.575422 -0.338380 1.300000 -1.000000 0.000000 0.000000
-2.575422 -0.338380 1.300000 -0.707107 -0.707107 0.000000
-2.575422 -0.338380 1.300000 0.000000 -1.000000 0.000000
-2.575422 -0.338380 1.300000 0.707107 -0.707107 0.000000
-2.075422 -0.338380 1.300000 1.000000 0.000000 0.000000
-2.075422 -0.338380 1.300000 0.707107 0.707107 0.000000
-2.075422 -0.338380 1.300000 0.000000 1.000000 0.000000
-2.075422 -0.338380 1.300000 -0.707107 0.707107 0.000000
-2.075422 -0.338380 1.300000 -1.000000 0.000000 0.000000
-2.075422 -0.338380 1.300000 -0.707107 -0.707107 0.000000
-2.075422 -0.338380 1.300000 0.000000 -1.000000 0.000000
-2.075422 -0.338380 1.300000 0.707107 -0.707107 0.000000
-1.575422 -0.338380 1.300000 1.000000 0.000000 0.000000
-1.575422 -0.338380 1.300000 0.707107 0.707107 0.000000
-1.575422 -0.338380 1.300000 0.000000 1.000000 0.000000
-1.575422 -0.338380 1.300000 -0.707107 0.707107 0.000000
-1.575422 -0.338380 1.300000 -1.000000 0.000000 0.000000
-1.575422 -0.338380 1.300000 -0.707107 -0.707107 0.000000
-1.575422 -0.338380 1.300000 0.000000 -1.000000 0.000000
-1.575422 -0.338380 1.300000 0.707107 -0.707107 0.000000
-1.075422 -0.338380 1.300000 1.000000 0.000000 0.000000
-1.075422 -0.338380 1.300000 0.707107 0.707107 0.000000
-1.075422 -0.338380 1.300000 0.000000 1.000000 0.000000
-1.075422 -0.338380 1.300000 -0.707107 0.707107 0.000000
-1.075422 -0.338380 1.300000 -1.000000 0.000000 0.000000
-1.075422 -0.338380 1.300000 -0.707107 -0.707107 0.000000
-1.075422 -0.338380 1.300000 0.000000 -1.000000 0.000000
-1.075422 -0.338380 1.300000 0.707107 -0.707107 0.000000
-0.575422 -0.338380 1.300000 1.000000 0.000000 0.000000
-0.575422 -0.338380 1.300000 0.707107 0.707107 0.000000
-0.575422 -0.338380 1.300000 0.000000 1.000000 0.000000
-0.575422 -0.338380 1.300000 -0.707107 0.707107 0.000000
-0.575422 -0.338380 1.300000 -1.000000 0.000000 0.000000
-0.575422 -0.338380 1.300000 -0.707107 -0.707107 0.000000
-0.575422 -0.338380 1.300000 0.000000 -1.000000 0.000000
-0.575422 -0.338380 1.300000 0.707107 -0.707107 0.000000
